REM DIRINDEX 1\2,1\3,1\4
REM DIRNAME folder01,folder02,folder03,folder04
TITLE ""
FILE "156 156_TOEFL_3900.mp3" MP3
  TRACK 01 AUDIO
    TITLE "2:cjc151_6795"
    INDEX 01 00:00:00
  TRACK 02 AUDIO
    TITLE "0:"
    INDEX 01 00:01:38
  TRACK 03 AUDIO
    TITLE "3:cjc151_6796"
    INDEX 01 00:03:21
  TRACK 04 AUDIO
    TITLE "0:"
    INDEX 01 00:07:35
  TRACK 05 AUDIO
    TITLE "2:cjc151_6797"
    INDEX 01 00:09:12
  TRACK 06 AUDIO
    TITLE "0:"
    INDEX 01 00:10:45
  TRACK 07 AUDIO
    TITLE "3:cjc151_6798"
    INDEX 01 00:12:22
  TRACK 08 AUDIO
    TITLE "0:"
    INDEX 01 00:15:68
  TRACK 09 AUDIO
    TITLE "2:cjc151_6799"
    INDEX 01 00:17:45
  TRACK 10 AUDIO
    TITLE "0:"
    INDEX 01 00:19:56
  TRACK 11 AUDIO
    TITLE "3:cjc151_6800"
    INDEX 01 00:21:35
  TRACK 12 AUDIO
    TITLE "0:"
    INDEX 01 00:25:35
  TRACK 13 AUDIO
    TITLE "2:cjc151_6801"
    INDEX 01 00:27:12
  TRACK 14 AUDIO
    TITLE "0:"
    INDEX 01 00:28:37
  TRACK 15 AUDIO
    TITLE "3:cjc151_6802"
    INDEX 01 00:30:14
  TRACK 16 AUDIO
    TITLE "0:"
    INDEX 01 00:34:26
  TRACK 17 AUDIO
    TITLE "2:cjc151_6803"
    INDEX 01 00:36:05
  TRACK 18 AUDIO
    TITLE "0:"
    INDEX 01 00:37:20
  TRACK 19 AUDIO
    TITLE "3:cjc151_6804"
    INDEX 01 00:39:00
  TRACK 20 AUDIO
    TITLE "0:"
    INDEX 01 00:42:45
  TRACK 21 AUDIO
    TITLE "2:cjc151_6805"
    INDEX 01 00:44:26
  TRACK 22 AUDIO
    TITLE "0:"
    INDEX 01 00:45:30
  TRACK 23 AUDIO
    TITLE "3:cjc151_6806"
    INDEX 01 00:47:07
  TRACK 24 AUDIO
    TITLE "0:"
    INDEX 01 00:51:73
  TRACK 25 AUDIO
    TITLE "2:cjc151_6807"
    INDEX 01 00:53:53
  TRACK 26 AUDIO
    TITLE "0:"
    INDEX 01 00:55:03
  TRACK 27 AUDIO
    TITLE "3:cjc151_6808"
    INDEX 01 00:56:55
  TRACK 28 AUDIO
    TITLE "0:"
    INDEX 01 01:00:60
  TRACK 29 AUDIO
    TITLE "2:cjc151_6809"
    INDEX 01 01:02:40
  TRACK 30 AUDIO
    TITLE "0:"
    INDEX 01 01:03:61
  TRACK 31 AUDIO
    TITLE "3:cjc151_6810"
    INDEX 01 01:05:36
  TRACK 32 AUDIO
    TITLE "0:"
    INDEX 01 01:09:71
  TRACK 33 AUDIO
    TITLE "2:cjc151_6811"
    INDEX 01 01:11:51
  TRACK 34 AUDIO
    TITLE "0:"
    INDEX 01 01:13:28
  TRACK 35 AUDIO
    TITLE "3:cjc151_6812"
    INDEX 01 01:15:07
  TRACK 36 AUDIO
    TITLE "0:"
    INDEX 01 01:18:53
  TRACK 37 AUDIO
    TITLE "2:cjc151_6813"
    INDEX 01 01:20:30
  TRACK 38 AUDIO
    TITLE "0:"
    INDEX 01 01:21:53
  TRACK 39 AUDIO
    TITLE "3:cjc151_6814"
    INDEX 01 01:23:36
  TRACK 40 AUDIO
    TITLE "0:"
    INDEX 01 01:26:64
  TRACK 41 AUDIO
    TITLE "2:cjc151_6815"
    INDEX 01 01:28:47
  TRACK 42 AUDIO
    TITLE "0:"
    INDEX 01 01:29:68
  TRACK 43 AUDIO
    TITLE "3:cjc151_6816"
    INDEX 01 01:31:45
  TRACK 44 AUDIO
    TITLE "0:"
    INDEX 01 01:36:48
  TRACK 45 AUDIO
    TITLE "2:cjc151_6817"
    INDEX 01 01:38:28
  TRACK 46 AUDIO
    TITLE "0:"
    INDEX 01 01:40:09
  TRACK 47 AUDIO
    TITLE "3:cjc151_6818"
    INDEX 01 01:41:61
  TRACK 48 AUDIO
    TITLE "0:"
    INDEX 01 01:46:35
  TRACK 49 AUDIO
    TITLE "2:cjc151_6819"
    INDEX 01 01:48:12
  TRACK 50 AUDIO
    TITLE "0:"
    INDEX 01 01:49:49
  TRACK 51 AUDIO
    TITLE "3:cjc151_6820"
    INDEX 01 01:51:27
  TRACK 52 AUDIO
    TITLE "0:"
    INDEX 01 01:54:64
  TRACK 53 AUDIO
    TITLE "2:cjc151_6821"
    INDEX 01 01:56:45
  TRACK 54 AUDIO
    TITLE "0:"
    INDEX 01 02:00:51
  TRACK 55 AUDIO
    TITLE "3:cjc151_6822"
    INDEX 01 02:02:28
  TRACK 56 AUDIO
    TITLE "0:"
    INDEX 01 02:06:67
  TRACK 57 AUDIO
    TITLE "2:cjc151_6823"
    INDEX 01 02:08:47
  TRACK 58 AUDIO
    TITLE "0:"
    INDEX 01 02:09:69
  TRACK 59 AUDIO
    TITLE "3:cjc151_6824"
    INDEX 01 02:11:49
  TRACK 60 AUDIO
    TITLE "0:"
    INDEX 01 02:16:01
  TRACK 61 AUDIO
    TITLE "2:cjc151_6825"
    INDEX 01 02:17:53
  TRACK 62 AUDIO
    TITLE "0:"
    INDEX 01 02:21:45
  TRACK 63 AUDIO
    TITLE "3:cjc151_6826"
    INDEX 01 02:23:30
  TRACK 64 AUDIO
    TITLE "0:"
    INDEX 01 02:27:73
  TRACK 65 AUDIO
    TITLE "2:cjc151_6827"
    INDEX 01 02:29:51
  TRACK 66 AUDIO
    TITLE "0:"
    INDEX 01 02:30:64
  TRACK 67 AUDIO
    TITLE "3:cjc151_6828"
    INDEX 01 02:32:41
  TRACK 68 AUDIO
    TITLE "0:"
    INDEX 01 02:36:37
  TRACK 69 AUDIO
    TITLE "2:cjc151_6829"
    INDEX 01 02:38:14
  TRACK 70 AUDIO
    TITLE "0:"
    INDEX 01 02:40:03
  TRACK 71 AUDIO
    TITLE "3:cjc151_6830"
    INDEX 01 02:41:54
  TRACK 72 AUDIO
    TITLE "0:"
    INDEX 01 02:47:31
  TRACK 73 AUDIO
    TITLE "2:cjc151_6831"
    INDEX 01 02:49:08
  TRACK 74 AUDIO
    TITLE "0:"
    INDEX 01 02:50:66
  TRACK 75 AUDIO
    TITLE "3:cjc151_6832"
    INDEX 01 02:52:46
  TRACK 76 AUDIO
    TITLE "0:"
    INDEX 01 02:56:55
  TRACK 77 AUDIO
    TITLE "2:cjc151_6833"
    INDEX 01 02:58:35
  TRACK 78 AUDIO
    TITLE "0:"
    INDEX 01 02:59:65
  TRACK 79 AUDIO
    TITLE "3:cjc151_6834"
    INDEX 01 03:01:45
  TRACK 80 AUDIO
    TITLE "0:"
    INDEX 01 03:06:05
